# xmcd
#
# Track frame offsets:
#	182
#	12387
#	23490
#	37447
#	51267
#	67850
#	80682
#	97475
#	111697
#	130195
#
# Disc length: 1901 seconds
#
# Revision: 1
# Processed by: cddbd v1.4PL0 Copyright (c) Steve Scherf et al.
# Submitted via: audiograbber 1.80
#
DISCID=91076b0a
DTITLE=Starlight Band - Locomotion
DYEAR=1900
DGENRE=
TTITLE0=Locomotion
TTITLE1=So suesse Schuh
TTITLE2=Mein klitze kleines Herz
TTITLE3=Schoener Fremder Mann
TTITLE4=To all the Girl's I've loved before
TTITLE5=If you could read my mind
TTITLE6=Heut' Abend hab ich Kopfweh
TTITLE7=Keep on running
TTITLE8=Hey Jude
TTITLE9=Trotzdem
EXTD=
EXTT0=
EXTT1=
EXTT2=
EXTT3=
EXTT4=
EXTT5=
EXTT6=
EXTT7=
EXTT8=
EXTT9=
PLAYORDER=
